<svg width="41" height="41" viewBox="0 0 41 41" fill="none" xmlns="http://www.w3.org/2000/svg">
<g clip-path="url(#clip0_3_1728)">
<path d="M20 31C21.1 31 22 30.1 22 29H18C18 30.1 18.9 31 20 31ZM26 25V20C26 16.93 24.37 14.36 21.5 13.68V13C21.5 12.17 20.83 11.5 20 11.5C19.17 11.5 18.5 12.17 18.5 13V13.68C15.64 14.36 14 16.92 14 20V25L12 27V28H28V27L26 25ZM24 26H16V20C16 17.52 17.51 15.5 20 15.5C22.49 15.5 24 17.52 24 20V26Z" fill="white"/>
</g>
<rect x="18.5" y="0.5" width="22" height="17" rx="8.5" fill="#CC1910"/>
<rect x="18.5" y="0.5" width="22" height="17" rx="8.5" stroke="#1074CC"/>
<path d="M25.3534 8.50439H26.1268C26.4276 8.50439 26.6765 8.45247 26.8734 8.34863C27.0739 8.24479 27.2225 8.10156 27.3192 7.91895C27.4159 7.73633 27.4642 7.52686 27.4642 7.29053C27.4642 7.04346 27.4195 6.83219 27.3299 6.65674C27.244 6.4777 27.1115 6.33984 26.9325 6.24316C26.757 6.14648 26.5332 6.09814 26.2611 6.09814C26.0319 6.09814 25.8243 6.14469 25.6381 6.23779C25.4554 6.32731 25.3104 6.45622 25.203 6.62451C25.0956 6.78923 25.0419 6.98617 25.0419 7.21533H23.7421C23.7421 6.79997 23.8513 6.43115 24.0697 6.10889C24.2881 5.78662 24.5853 5.53418 24.9613 5.35156C25.3409 5.16536 25.767 5.07227 26.2396 5.07227C26.7445 5.07227 27.1849 5.15641 27.5609 5.32471C27.9405 5.48942 28.2359 5.73649 28.4471 6.06592C28.6584 6.39535 28.764 6.80355 28.764 7.29053C28.764 7.51253 28.7121 7.73812 28.6083 7.96729C28.5044 8.19645 28.3505 8.40592 28.1464 8.5957C27.9423 8.7819 27.688 8.93408 27.3837 9.05225C27.0793 9.16683 26.7266 9.22412 26.3256 9.22412H25.3534V8.50439ZM25.3534 9.51416V8.80518H26.3256C26.7839 8.80518 27.1742 8.85889 27.4965 8.96631C27.8223 9.07373 28.0873 9.22233 28.2914 9.41211C28.4955 9.59831 28.6441 9.81136 28.7372 10.0513C28.8339 10.2912 28.8822 10.5454 28.8822 10.814C28.8822 11.1792 28.816 11.505 28.6835 11.7915C28.5546 12.0744 28.3702 12.3143 28.1302 12.5112C27.8903 12.7082 27.6092 12.8568 27.287 12.957C26.9683 13.0573 26.621 13.1074 26.245 13.1074C25.9084 13.1074 25.5861 13.0609 25.2782 12.9678C24.9702 12.8747 24.6945 12.7368 24.451 12.5542C24.2076 12.368 24.0142 12.137 23.871 11.8613C23.7313 11.582 23.6615 11.2598 23.6615 10.8945H24.9559C24.9559 11.1273 25.0096 11.3332 25.1171 11.5122C25.2281 11.6877 25.382 11.8255 25.579 11.9258C25.7795 12.026 26.0087 12.0762 26.2665 12.0762C26.5386 12.0762 26.7731 12.0278 26.9701 11.9312C27.167 11.8345 27.3174 11.6912 27.4213 11.5015C27.5287 11.3117 27.5824 11.0825 27.5824 10.814C27.5824 10.5096 27.5233 10.2625 27.4051 10.0728C27.287 9.88298 27.1187 9.74333 26.9003 9.65381C26.6818 9.56071 26.424 9.51416 26.1268 9.51416H25.3534ZM35.3385 11.9688V13H30.0963V12.1138L32.6422 9.33691C32.9215 9.02181 33.1417 8.74967 33.3029 8.52051C33.464 8.29134 33.5768 8.08545 33.6412 7.90283C33.7093 7.71663 33.7433 7.53581 33.7433 7.36035C33.7433 7.11328 33.6967 6.89665 33.6036 6.71045C33.5141 6.52067 33.3816 6.37207 33.2062 6.26465C33.0307 6.15365 32.8177 6.09814 32.567 6.09814C32.277 6.09814 32.0335 6.16081 31.8366 6.28613C31.6396 6.41146 31.491 6.58512 31.3908 6.80713C31.2905 7.02555 31.2404 7.2762 31.2404 7.55908H29.9459C29.9459 7.10433 30.0498 6.68896 30.2575 6.31299C30.4651 5.93343 30.7659 5.63265 31.1598 5.41064C31.5537 5.18506 32.0281 5.07227 32.5831 5.07227C33.1059 5.07227 33.5499 5.15999 33.9152 5.33545C34.2804 5.5109 34.5579 5.75977 34.7477 6.08203C34.941 6.4043 35.0377 6.78564 35.0377 7.22607C35.0377 7.46956 34.9983 7.71126 34.9196 7.95117C34.8408 8.19108 34.728 8.43099 34.5812 8.6709C34.438 8.90723 34.2679 9.14535 34.0709 9.38525C33.874 9.62158 33.6574 9.86149 33.421 10.105L31.7291 11.9688H35.3385Z" fill="white"/>
<defs>
<clipPath id="clip0_3_1728">
<rect width="24" height="24" fill="white" transform="translate(8 9)"/>
</clipPath>
</defs>
</svg>
